<?xml version="1.0" encoding="utf-8"?>
<!-- Generator: Adobe Illustrator 19.0.0, SVG Export Plug-In . SVG Version: 6.00 Build 0)  -->
<svg version="1.1" id="Layer_1" xmlns="http://www.w3.org/2000/svg" xmlns:xlink="http://www.w3.org/1999/xlink" x="0px" y="0px"
	 viewBox="0 0 166.3 161" style="enable-background:new 0 0 166.3 161;" xml:space="preserve">
<style type="text/css">
	.st0{fill:#FFFFFF;stroke:#FFFFFF;stroke-miterlimit:10;}
</style>
<g id="XMLID_3_">
	<g id="XMLID_1_">
		<path id="XMLID_171_" class="st0" d="M12.2,8.7h142.6c1.7,0,3,0.9,3,2.5v30.3c0,1.7-1.4,3.4-3,3.4l-46.6,0c-2.5,0-4,2.9-2.4,4.9
			l51.5,66.2c0.6,0.8,0.9,1.7,0.9,2.6l-0.2,32.1c0,1.7-1.4,2.6-3,2.5l-70.1,0c-1,0-1.9-0.5-2.5-1.3l-31.1-44.9
			c-1.7-2.4-5.5-1.2-5.5,1.7l0.2,41.9c0,1.7-1.3,2.6-3,2.6H11.2c-1.7,0-3-0.9-3-2.5L8.2,12.7C8.2,10.5,10,8.7,12.2,8.7z"/>
	</g>
</g>
</svg>
